<svg width="80" height="80" viewBox="0 0 80 80" fill="none" xmlns="http://www.w3.org/2000/svg">
<path d="M24.1732 35.8084C24.1732 36.6893 24.2697 37.4036 24.4386 37.9274C24.6315 38.4512 24.8728 39.0226 25.2105 39.6417C25.3311 39.8322 25.3794 40.0226 25.3794 40.1893C25.3794 40.4274 25.2346 40.6655 24.921 40.9036L23.4013 41.9036C23.1842 42.0465 22.9671 42.1179 22.7741 42.1179C22.5329 42.1179 22.2916 41.9988 22.0504 41.7846C21.7127 41.4274 21.4232 41.0465 21.182 40.6655C20.9408 40.2607 20.6995 39.8084 20.4342 39.2607C18.5526 41.4512 16.1886 42.5465 13.3421 42.5465C11.3158 42.5465 9.69953 41.975 8.51751 40.8322C7.33549 39.6893 6.73242 38.1655 6.73242 36.2607C6.73242 34.2369 7.45611 32.5941 8.9276 31.356C10.3991 30.1179 12.353 29.4988 14.8377 29.4988C15.6579 29.4988 16.5022 29.5703 17.3947 29.6893C18.2872 29.8084 19.2039 29.9988 20.1688 30.2131V28.475C20.1688 26.6655 19.7829 25.4036 19.0351 24.6655C18.2631 23.9274 16.9605 23.5703 15.103 23.5703C14.2587 23.5703 13.3903 23.6655 12.4978 23.8798C11.6052 24.0941 10.7368 24.356 9.89251 24.6893C9.50654 24.856 9.21707 24.9512 9.04821 24.9988C8.87935 25.0465 8.75874 25.0703 8.66225 25.0703C8.32453 25.0703 8.15567 24.8322 8.15567 24.3322V23.1655C8.15567 22.7846 8.20391 22.4988 8.32453 22.3322C8.44514 22.1655 8.66225 21.9988 8.99997 21.8322C9.84426 21.4036 10.8574 21.0465 12.0394 20.7607C13.2215 20.4512 14.4758 20.3084 15.8026 20.3084C18.6732 20.3084 20.7719 20.9512 22.1228 22.2369C23.4495 23.5226 24.125 25.475 24.125 28.0941V35.8084H24.1732ZM14.3794 39.4274C15.1754 39.4274 15.9956 39.2846 16.864 38.9988C17.7324 38.7131 18.5044 38.1893 19.1557 37.475C19.5416 37.0226 19.8311 36.5226 19.9758 35.9512C20.1206 35.3798 20.2171 34.6893 20.2171 33.8798V32.8798C19.5175 32.7131 18.7697 32.5703 17.9978 32.475C17.2258 32.3798 16.478 32.3322 15.7302 32.3322C14.114 32.3322 12.932 32.6417 12.1359 33.2846C11.3399 33.9274 10.9539 34.8322 10.9539 36.0226C10.9539 37.1417 11.2434 37.975 11.8465 38.5465C12.4254 39.1417 13.2697 39.4274 14.3794 39.4274ZM33.75 41.9988C33.3158 41.9988 33.0263 41.9274 32.8333 41.7607C32.6403 41.6179 32.4715 41.2846 32.3267 40.8322L26.6579 22.4274C26.5131 21.9512 26.4408 21.6417 26.4408 21.475C26.4408 21.0941 26.6337 20.8798 27.0197 20.8798H29.3837C29.8421 20.8798 30.1557 20.9512 30.3245 21.1179C30.5175 21.2607 30.6622 21.5941 30.807 22.0465L34.8596 37.8084L38.6228 22.0465C38.7434 21.5703 38.8881 21.2607 39.0811 21.1179C39.2741 20.975 39.6118 20.8798 40.046 20.8798H41.9758C42.4342 20.8798 42.7478 20.9512 42.9408 21.1179C43.1337 21.2607 43.3026 21.5941 43.3991 22.0465L47.2105 37.9988L51.3837 22.0465C51.5285 21.5703 51.6973 21.2607 51.8662 21.1179C52.0592 20.975 52.3728 20.8798 52.807 20.8798H55.0504C55.4364 20.8798 55.6535 21.0703 55.6535 21.475C55.6535 21.5941 55.6293 21.7131 55.6052 21.856C55.5811 21.9988 55.5329 22.1893 55.4364 22.4512L49.6228 40.856C49.478 41.3322 49.3092 41.6417 49.1162 41.7846C48.9232 41.9274 48.6096 42.0226 48.1995 42.0226H46.125C45.6666 42.0226 45.353 41.9512 45.16 41.7846C44.9671 41.6179 44.7982 41.3084 44.7017 40.8322L40.9627 25.475L37.2478 40.8084C37.1272 41.2846 36.9824 41.5941 36.7894 41.7607C36.5965 41.9274 36.2587 41.9988 35.8245 41.9988H33.75ZM64.7478 42.6417C63.4934 42.6417 62.239 42.4988 61.0329 42.2131C59.8267 41.9274 58.8859 41.6179 58.2587 41.2607C57.8728 41.0465 57.6074 40.8084 57.5109 40.5941C57.4144 40.3798 57.3662 40.1417 57.3662 39.9274V38.7131C57.3662 38.2131 57.5592 37.975 57.921 37.975C58.0658 37.975 58.2105 37.9988 58.3552 38.0465C58.5 38.0941 58.7171 38.1893 58.9583 38.2846C59.7785 38.6417 60.671 38.9274 61.6118 39.1179C62.5767 39.3084 63.5175 39.4036 64.4824 39.4036C66.0022 39.4036 67.1842 39.1417 68.0044 38.6179C68.8245 38.0941 69.2587 37.3322 69.2587 36.356C69.2587 35.6893 69.0416 35.1417 68.6074 34.6893C68.1732 34.2369 67.353 33.8322 66.171 33.4512L62.6732 32.3798C60.9122 31.8322 59.6096 31.0226 58.8136 29.9512C58.0175 28.9036 57.6074 27.7369 57.6074 26.4988C57.6074 25.4988 57.8245 24.6179 58.2587 23.856C58.6929 23.0941 59.2719 22.4274 59.9956 21.9036C60.7193 21.356 61.5394 20.9512 62.5044 20.6655C63.4693 20.3798 64.4824 20.2607 65.5438 20.2607C66.0745 20.2607 66.6294 20.2846 67.1601 20.356C67.7149 20.4274 68.2215 20.5226 68.728 20.6179C69.2105 20.7369 69.6688 20.856 70.103 20.9988C70.5372 21.1417 70.875 21.2846 71.1162 21.4274C71.4539 21.6179 71.6951 21.8084 71.8399 22.0226C71.9846 22.2131 72.057 22.475 72.057 22.8084V23.9274C72.057 24.4274 71.864 24.6893 71.5022 24.6893C71.3092 24.6893 70.9956 24.5941 70.5855 24.4036C69.2105 23.7846 67.6666 23.475 65.9539 23.475C64.5789 23.475 63.4934 23.6893 62.7456 24.1417C61.9978 24.5941 61.6118 25.2846 61.6118 26.2607C61.6118 26.9274 61.853 27.4988 62.3355 27.9512C62.8179 28.4036 63.7105 28.856 64.989 29.2607L68.4144 30.3322C70.1513 30.8798 71.4057 31.6417 72.1535 32.6179C72.9013 33.5941 73.2631 34.7131 73.2631 35.9512C73.2631 36.975 73.046 37.9036 72.6359 38.7131C72.2017 39.5226 71.6228 40.2369 70.875 40.8084C70.1272 41.4036 69.2346 41.8322 68.1973 42.1417C67.1118 42.475 65.978 42.6417 64.7478 42.6417Z" fill="#252F3E"/>
<path fill-rule="evenodd" clip-rule="evenodd" d="M63.3245 50.1901C65.9056 49.8806 71.5986 49.2139 72.6118 50.4997C73.6249 51.7616 71.478 57.0711 70.5131 59.4282C70.2236 60.1425 70.8508 60.4282 71.5021 59.8806C75.7477 56.3568 76.8574 48.9997 75.989 47.9282C75.1206 46.8806 67.6666 45.9759 63.1315 49.1187C62.4319 49.6187 62.5525 50.2854 63.3245 50.1901ZM39.9263 63.0703C49.8408 63.0703 61.3715 59.9988 69.3079 54.2131C70.6105 53.2608 69.4768 51.8084 68.15 52.4036C59.2487 56.1179 49.5754 57.9274 40.7706 57.9274C27.7202 57.9274 15.1039 54.3798 4.87587 48.5227C3.98333 47.9988 3.30789 48.9036 4.05569 49.5703C13.5118 57.9988 26.0316 63.0703 39.9263 63.0703Z" fill="#FF9900"/>
</svg>
