<svg width="18" height="18" viewBox="0 0 18 18" fill="none" xmlns="http://www.w3.org/2000/svg">
<path fill-rule="evenodd" clip-rule="evenodd" d="M4.5001 0C3.67168 0 3.0001 0.671573 3.0001 1.5V4H2.5001C1.67168 4 1.0001 4.67157 1.0001 5.5V10.4645L0.16819 16.2879C0.0390967 17.1915 0.740291 18 1.65311 18H5.3471C6.25992 18 6.96111 17.1915 6.83202 16.2879L6.07661 11H11.9236L11.1682 16.2879C11.0391 17.1915 11.7403 18 12.6531 18H16.3471C17.2599 18 17.9611 17.1915 17.832 16.2879L17.0001 10.4645V5.5C17.0001 4.67157 16.3285 4 15.5001 4H15.0001V1.5C15.0001 0.671573 14.3285 0 13.5001 0H11.5001C10.6717 0 10.0001 0.671573 10.0001 1.5V4H8.00012L8.0001 1.5C8.0001 0.671573 7.32853 0 6.5001 0H4.5001ZM7.00012 5H2.5001C2.22396 5 2.0001 5.22386 2.0001 5.5V10H7.00012V5ZM8.00012 10H10.0001V5H8.00012V10ZM11.0001 5V10H16.0001V5.5C16.0001 5.22386 15.7762 5 15.5001 5H11.0001ZM11.0001 4H14.0001V1.5C14.0001 1.22386 13.7762 1 13.5001 1H11.5001C11.224 1 11.0001 1.22386 11.0001 1.5L11.0001 4ZM7.0001 4H4.0001V1.5C4.0001 1.22386 4.22396 1 4.5001 1H6.5001C6.77625 1 7.0001 1.22386 7.0001 1.5V4ZM1.15814 16.4293L1.93375 11H5.06646L5.84207 16.4293C5.8851 16.7305 5.65137 17 5.3471 17H1.65311C1.34884 17 1.11511 16.7305 1.15814 16.4293ZM12.1581 16.4293L12.9338 11H16.0665L16.8421 16.4293C16.8851 16.7305 16.6514 17 16.3471 17H12.6531C12.3488 17 12.1151 16.7305 12.1581 16.4293Z" fill="#6f7681"/>
</svg>
