<svg width="50" height="49" viewBox="0 0 50 49" fill="none" xmlns="http://www.w3.org/2000/svg">
<path d="M8.52877 15.7694C9.51413 14.7775 10.8255 14.2305 12.2203 14.2305C12.5717 14.2305 12.9231 14.2651 13.2636 14.3362C13.3306 14.3508 13.3994 14.3271 13.4465 14.276C13.4936 14.225 13.5081 14.1539 13.4882 14.0864C13.3397 13.5905 13.2654 13.0799 13.2654 12.5675C13.2654 11.1635 13.8088 9.84342 14.7942 8.85151C15.7795 7.8596 17.0909 7.31259 18.4857 7.31259C19.7482 7.31259 20.969 7.77755 21.9236 8.62177C21.9761 8.66735 22.0486 8.68194 22.1138 8.66006C22.179 8.63818 22.2297 8.58348 22.2442 8.51419C22.5865 6.89868 23.3835 5.42357 24.5482 4.25115C26.1567 2.63199 28.2922 1.74219 30.5655 1.74219C32.8387 1.74219 34.9743 2.63199 36.5809 4.25115C38.1876 5.86848 39.0733 8.02005 39.0733 10.3084C39.0733 11.654 38.7708 12.9468 38.1713 14.1466C38.1369 14.2159 38.1459 14.2997 38.1948 14.3599C38.2437 14.4201 38.3234 14.4456 38.3977 14.4256C40.2688 13.9077 42.1616 14.4547 43.4712 15.7712C44.4566 16.7631 45 18.0832 45 19.4872C45 20.8912 44.4566 22.2113 43.4712 23.2033C42.4859 24.1952 41.1745 24.7422 39.7797 24.7422H12.2203C10.8255 24.7422 9.51594 24.1952 8.52877 23.2033C7.5434 22.2077 7 20.8894 7 19.4854C7 18.0814 7.5434 16.7613 8.52877 15.7694Z" stroke="#282C33" stroke-width="2"/>
<path d="M26 36.5986V27.0369" stroke="#282C33" stroke-width="1.5"/>
<rect x="25.8354" y="37.8105" width="7.21514" height="7.21514" transform="rotate(45 25.8354 37.8105)" fill="#00C2A8"/>
<path d="M11.3548 36.5989C16.6356 36.5989 20.9165 32.3179 20.9165 27.0371" stroke="#282C33" stroke-width="1.5"/>
<path d="M40.4382 36.5989C35.1574 36.5989 30.8765 32.3179 30.8765 27.0371" stroke="#282C33" stroke-width="1.5"/>
<path d="M2.49004 32.0173L0 36.3001L2.49004 40.583H7.47012L9.96016 36.3001L7.47012 32.0173H2.49004Z" fill="#635DFF"/>
<rect x="41.6333" y="32.0176" width="8.36653" height="8.56574" fill="#F96B13"/>
</svg>
