<svg width="18" height="14" viewBox="0 0 18 14" fill="none" xmlns="http://www.w3.org/2000/svg">
<path fill-rule="evenodd" clip-rule="evenodd" d="M9.95788 3.75612C10.5788 3.4167 11 2.75754 11 2C11 0.895431 10.1046 0 9 0C7.89543 0 7 0.895431 7 2C7 2.75754 7.42117 3.41671 8.04212 3.75612L6.25405 7.03425C6.11625 7.28689 5.79414 7.37135 5.5501 7.21882L3.69622 6.06014C3.88872 5.7528 4 5.38939 4 5C4 3.89543 3.10457 3 2 3C0.895431 3 0 3.89543 0 5C0 6.10457 0.895431 7 2 7C2.07465 7 2.14835 6.99591 2.22088 6.98794L2.90116 13.1104C2.95743 13.6169 3.38549 14 3.89504 14H14.105C14.6145 14 15.0426 13.6169 15.0988 13.1104L15.7791 6.98794C15.8517 6.99591 15.9253 7 16 7C17.1046 7 18 6.10457 18 5C18 3.89543 17.1046 3 16 3C14.8954 3 14 3.89543 14 5C14 5.3894 14.1113 5.7528 14.3038 6.06014L12.8998 6.93763C12.4117 7.24269 11.7675 7.07378 11.4919 6.56849L9.95788 3.75612ZM9.47666 2.87931C9.33497 2.95628 9.17259 3 9 3C8.82712 3 8.66448 2.95613 8.52262 2.87892C8.52289 2.87907 8.52235 2.87877 8.52262 2.87892C8.21173 2.70933 8 2.37908 8 2C8 1.44772 8.44772 1 9 1C9.55228 1 10 1.44772 10 2C10 2.3797 9.78838 2.70997 9.47666 2.87931ZM15.1519 5.53008C15.2945 5.75783 15.5264 5.92401 15.7985 5.97968C15.8636 5.993 15.931 6 16 6C16.5523 6 17 5.55229 17 5C17 4.44771 16.5523 4 16 4C15.4477 4 15 4.44772 15 5M3 5C3 5.55228 2.55228 6 2 6C1.44772 6 1 5.55228 1 5C1 4.44772 1.44772 4 2 4C2.55228 4 3 4.44772 3 5ZM7.13195 7.5131L9 4.08833L10.614 7.04734C11.1652 8.05792 12.4536 8.39573 13.4298 7.78563L14.778 6.94303L14.105 13L3.89504 13L3.22205 6.94303L5.02011 8.06682C5.75223 8.52439 6.71853 8.27103 7.13195 7.5131Z" fill="#6f7681"/>
</svg>
