 <svg width="1215" height="305" fill="none" xmlns="http://www.w3.org/2000/svg"><g opacity=".4" stroke-width=".79"><path d="M91.932 145v5.863m2.931-2.931H89" stroke="#000"/><rect x="1031" y="24" width="5.133" height="5.133" rx="2.567" stroke="#000"/><rect x="162.303" y="14.1" width="5.133" height="5.133" rx="2.567" stroke="#000"/><path d="M692.81 14l5.331 5.33m0-5.33l-5.331 5.33" stroke="#F96B13"/><path stroke="#000" d="M613.837 184.682h5.133v5.133h-5.133z"/><path d="M1 70.861l5.33 5.331m0-5.33L1 76.191" stroke="#F96B13"/><path d="M296.932 265v5.863m2.931-2.931H294" stroke="#000"/><rect x="272.303" y="164.1" width="5.133" height="5.133" rx="2.567" stroke="#000"/><path d="M872.81 104l5.331 5.331m0-5.331l-5.331 5.331M1031 298l5.33 5.331m0-5.331l-5.33 5.331" stroke="#F96B13"/><path d="M496.932 36v5.864m2.931-2.932H494" stroke="#000"/><rect x="770" y="299" width="5.133" height="5.133" rx="2.567" stroke="#000"/><path d="M1209 46l5.33 5.33m0-5.33l-5.33 5.33" stroke="#F96B13"/><path stroke="#000" d="M887 19h5.133v5.133H887zM970 240h5.133v5.133H970zM19 287h5.133v5.133H19zM246 75h5.133v5.133H246z"/><path d="M181 200l5.331 5.331m0-5.331L181 205.331" stroke="#F96B13"/><path d="M1164.93 1v5.863m2.93-2.931H1162M977.932 104v5.863m2.931-2.931H975" stroke="#000"/></g></svg>
